<svg width="24" height="24" viewBox="0 0 24 24" fill="none" xmlns="http://www.w3.org/2000/svg">
<path d="M20.0618 18.6972C21.1388 17.4013 21.888 15.865 22.2458 14.2184C22.6035 12.5717 22.5595 10.8631 22.1173 9.23705C21.6751 7.61102 20.8477 6.11541 19.7052 4.87675C18.5628 3.63808 17.1388 2.69281 15.5537 2.12088C13.9686 1.54895 12.2691 1.3672 10.599 1.591C8.92881 1.8148 7.33711 2.43757 5.95854 3.40662C4.57996 4.37567 3.45506 5.6625 2.67899 7.15824C1.90293 8.65399 1.49853 10.3146 1.5 11.9997C1.50063 14.4494 2.36387 16.8205 3.93825 18.6972L3.92325 18.71C3.97575 18.773 4.03575 18.827 4.08975 18.8892C4.15725 18.9665 4.23 19.0392 4.29975 19.1142C4.50875 19.3427 4.72625 19.5602 4.95225 19.7667C5.02225 19.8287 5.09225 19.8892 5.16225 19.9482C5.40225 20.1557 5.64975 20.3512 5.90475 20.5347C5.93775 20.5572 5.96775 20.5865 6.00075 20.6097V20.6007C7.75729 21.837 9.85281 22.5004 12.0008 22.5004C14.1487 22.5004 16.2442 21.837 18.0008 20.6007V20.6097C18.0338 20.5865 18.063 20.5572 18.0968 20.5347C18.3518 20.3507 18.5993 20.1552 18.8393 19.9482C18.9093 19.8887 18.9793 19.8282 19.0493 19.7667C19.2748 19.5602 19.4923 19.3427 19.7018 19.1142C19.7715 19.0392 19.8435 18.9665 19.9118 18.8892C19.965 18.827 20.0258 18.773 20.0783 18.7092L20.0618 18.6972ZM12 5.99974C12.6675 5.99974 13.32 6.19768 13.8751 6.56853C14.4301 6.93938 14.8627 7.46648 15.1181 8.08318C15.3735 8.69988 15.4404 9.37848 15.3102 10.0332C15.1799 10.6879 14.8585 11.2892 14.3865 11.7612C13.9145 12.2332 13.3131 12.5547 12.6584 12.6849C12.0037 12.8151 11.3251 12.7483 10.7084 12.4928C10.0917 12.2374 9.56464 11.8048 9.19379 11.2498C8.82294 10.6948 8.625 10.0423 8.625 9.37474C8.625 8.47963 8.98058 7.62119 9.61352 6.98825C10.2465 6.35532 11.1049 5.99974 12 5.99974ZM6.00525 18.6972C6.01826 17.7125 6.41846 16.7724 7.11927 16.0804C7.82008 15.3885 8.76514 15.0002 9.75 14.9997H14.25C15.2349 15.0002 16.1799 15.3885 16.8807 16.0804C17.5815 16.7724 17.9817 17.7125 17.9948 18.6972C16.3499 20.1795 14.2142 20.9998 12 20.9998C9.78581 20.9998 7.65012 20.1795 6.00525 18.6972Z" fill="#1A5098"/>
</svg>
