<?xml version="1.0" encoding="UTF-8"?>
<svg version="1.1" xmlns="http://www.w3.org/2000/svg" width="512" height="512">
<path d="M0 0 C0.65378128 -0.00014603 1.30756256 -0.00029205 1.9811554 -0.0004425 C4.14551086 0.00025504 6.30978063 0.00803999 8.47412109 0.01586914 C9.97341871 0.01773388 11.47271694 0.01915752 12.97201538 0.02015686 C16.92087482 0.0239776 20.86969756 0.03380411 24.81854248 0.04486084 C28.84695947 0.05508448 32.87538238 0.05965653 36.90380859 0.06469727 C44.81007545 0.07542677 52.71631246 0.09249789 60.62255859 0.11352539 C60.8995459 1.31936279 60.8995459 1.31936279 61.18212891 2.54956055 C61.43575195 3.61480957 61.689375 4.68005859 61.95068359 5.77758789 C62.3204834 7.35467529 62.3204834 7.35467529 62.69775391 8.96362305 C65.01959932 16.87187267 69.67389421 23.6264324 76.62255859 28.11352539 C82.73486046 31.33543366 88.14261092 33.22991011 95.07875061 33.26069641 C96.187435 33.26785172 97.29611938 33.27500702 98.43840027 33.28237915 C99.65038589 33.28506805 100.86237152 33.28775696 102.11108398 33.29052734 C103.39122375 33.29709854 104.67136353 33.30366974 105.99029541 33.31044006 C110.23358923 33.33144231 114.47688323 33.34184193 118.72021484 33.35180664 C120.18479366 33.35585626 121.64937229 33.35997324 123.11395073 33.36415672 C129.99906061 33.38320351 136.88415983 33.39743309 143.76929098 33.40576869 C151.69646824 33.41552603 159.62336515 33.44180807 167.55044371 33.48226959 C173.68992592 33.51252242 179.82932821 33.52724639 185.96888345 33.53054971 C189.62962611 33.53289063 193.29006912 33.54172435 196.95073128 33.56701088 C201.04342115 33.59482468 205.13549283 33.59043263 209.22827148 33.58349609 C210.42608749 33.59630615 211.6239035 33.60911621 212.85801697 33.62231445 C222.88143779 33.56063475 231.90799921 31.35225093 239.83740234 24.95336914 C246.2734342 18.3201722 249.41357604 10.09453862 250.62255859 1.11352539 C252.43802628 -0.7019423 255.25661982 -0.03313056 257.69946289 -0.04760742 C259.00139084 -0.05721497 260.30331879 -0.06682251 261.6446991 -0.07672119 C263.07872341 -0.08157028 264.51274974 -0.08584883 265.94677734 -0.08959961 C267.41071068 -0.0953504 268.87464399 -0.10110814 270.33857727 -0.10687256 C273.41460522 -0.11739546 276.49060696 -0.12322882 279.56665039 -0.12670898 C283.49978228 -0.13217884 287.43256535 -0.15616863 291.36558819 -0.18468094 C294.39314261 -0.20335388 297.42061408 -0.20851551 300.44822121 -0.21004486 C301.89743762 -0.21306437 303.34665281 -0.2210692 304.79581261 -0.23423004 C306.83003208 -0.25137648 308.86439518 -0.24755311 310.89868164 -0.24291992 C312.05482468 -0.24656555 313.21096771 -0.25021118 314.40214539 -0.25396729 C319.33669427 0.30913144 322.57703285 1.98322729 325.93505859 5.61352539 C328.17253334 8.9283028 328.74781851 11.40197414 328.73608398 15.30957031 C328.73600845 16.1502153 328.73593292 16.99086029 328.7358551 17.85697937 C328.73069382 18.76019424 328.72553253 19.66340912 328.72021484 20.59399414 C328.71809242 21.98597771 328.71809242 21.98597771 328.71592712 23.40608215 C328.71032796 26.37109597 328.69777564 29.33603438 328.68505859 32.30102539 C328.68004348 34.31078993 328.6754806 36.32055564 328.67138672 38.33032227 C328.66035881 43.25808571 328.64309476 48.18579276 328.62255859 53.11352539 C326.6720459 53.12754395 326.6720459 53.12754395 324.68212891 53.1418457 C319.80630629 53.18205327 314.93109443 53.24789461 310.05566406 53.32104492 C307.95515861 53.34907744 305.85455114 53.37037905 303.75390625 53.38452148 C286.80615154 53.50540419 273.8634593 54.35337371 260.62255859 66.11352539 C250.29174958 77.19605647 248.3223098 89.3499205 248.34408569 104.02124023 C248.33907787 105.43470484 248.33320065 106.84816659 248.32653296 108.26162434 C248.31077779 112.13150101 248.30730476 116.00130499 248.30588436 119.87120986 C248.30218247 124.04972497 248.28702305 128.22820058 248.27326965 132.4066925 C248.25101779 139.64151595 248.23599204 146.8763253 248.22590256 154.11117554 C248.21130445 164.57149319 248.18576444 175.03176173 248.15757127 185.49205053 C248.11212385 202.464007 248.07550057 219.43597055 248.04443359 236.40795898 C248.01423966 252.89267215 247.9798855 269.377368 247.93994141 285.86206055 C247.93747986 286.87852425 247.93501831 287.89498796 247.93248217 288.94225359 C247.9201074 294.04165698 247.9076509 299.14106017 247.89515376 304.24046326 C247.79161666 346.53145983 247.70240327 388.8224779 247.62255859 431.11352539 C215.239217 431.20476524 182.85591242 431.27555862 150.47247165 431.31778671 C146.64977906 431.32278957 142.82708673 431.32796685 139.00439453 431.33325195 C137.86284517 431.33482582 137.86284517 431.33482582 136.69823422 431.33643147 C124.3738153 431.35383926 112.04947098 431.38537899 99.72509633 431.42213657 C87.08023325 431.45953563 74.43540925 431.48175905 61.79049313 431.48987937 C53.9871435 431.49536931 46.18400471 431.51271201 38.38071997 431.54519126 C32.39829441 431.56882403 26.41605041 431.57134786 20.43357277 431.56595612 C17.97854246 431.5670583 15.52350432 431.57503792 13.0685215 431.59034729 C9.72034272 431.61020588 6.37307095 431.60547884 3.02487183 431.59454346 C2.05015706 431.60619482 1.07544229 431.61784619 0.07119071 431.62985063 C-5.55903574 431.58003991 -9.01580977 431.03695945 -13.37744141 427.11352539 C-16.39358481 423.04968337 -16.75300684 420.09068503 -16.75496483 415.07789612 C-16.75932515 414.37801492 -16.76368547 413.67813372 -16.76817793 412.95704401 C-16.77914761 410.60609476 -16.76870451 408.25573036 -16.75839233 405.90478516 C-16.76184823 404.20461253 -16.76661233 402.50444215 -16.77257407 400.80427647 C-16.78512315 396.1277171 -16.77889594 391.45134087 -16.76961541 386.77478075 C-16.76284124 381.73313168 -16.77329803 376.69151459 -16.78155518 371.64987183 C-16.79491216 361.77147229 -16.79200602 351.89314104 -16.78331725 342.0147388 C-16.77654884 333.98810181 -16.77562033 325.96148399 -16.7788887 317.93484497 C-16.7793484 316.7935172 -16.7798081 315.65218944 -16.78028173 314.47627598 C-16.78124088 312.1578683 -16.78221352 309.83946063 -16.7831995 307.52105296 C-16.79175916 285.76882096 -16.78191024 264.01662686 -16.7657984 242.26440108 C-16.75239471 223.59006676 -16.75472264 204.91578839 -16.76855469 186.24145508 C-16.78460034 164.56835858 -16.79093513 142.89529532 -16.7817179 121.22219372 C-16.78076222 118.91219775 -16.77981911 116.60220178 -16.7788887 114.29220581 C-16.77842588 113.15557088 -16.77796305 112.01893595 -16.7774862 110.84785753 C-16.77489326 102.82858678 -16.77927384 94.80933707 -16.78632736 86.79006958 C-16.79473129 77.02052361 -16.79248556 67.25104997 -16.77648513 57.48151231 C-16.7685875 52.49461144 -16.7655362 47.50783128 -16.77543259 42.52093124 C-16.78434913 37.95887511 -16.779497 33.39705198 -16.76349993 28.83501709 C-16.7601392 27.18165883 -16.76187506 25.52828103 -16.76912729 23.87493527 C-16.77821068 21.63272598 -16.76893373 19.3913215 -16.75496483 17.14915466 C-16.75447777 15.90220542 -16.75399071 14.65525618 -16.7534889 13.37052059 C-16.1939671 8.52443106 -14.43053919 6.03819662 -10.81494141 2.86352539 C-6.91152787 0.06107465 -4.80279386 -0.008994 0 0 Z M143.62255859 116.11352539 C139.50452319 121.53199303 138.89247228 126.40617027 138.62255859 133.11352539 C138.06568359 133.33266602 137.50880859 133.55180664 136.93505859 133.77758789 C125.34802127 138.59247165 115.86141452 146.36863898 110.74755859 158.05102539 C106.08991757 170.4976269 105.28426463 181.96356358 110.34130859 194.51586914 C119.17315376 212.42189668 140.27184945 219.63115193 157.79589844 226.41210938 C162.20000171 228.11645217 166.41351474 229.95844438 170.62255859 232.11352539 C172.10755859 232.60852539 172.10755859 232.60852539 173.62255859 233.11352539 C174.74755859 235.55102539 174.74755859 235.55102539 175.62255859 238.11352539 C175.95255859 238.77352539 176.28255859 239.43352539 176.62255859 240.11352539 C177.28635063 247.79610202 177.46979768 254.79560695 172.62255859 261.11352539 C166.89416666 266.84191733 161.09140401 269.4631363 153.11499023 269.53100586 C152.35436279 269.5169873 151.59373535 269.50296875 150.81005859 269.48852539 C150.01398193 269.47837402 149.21790527 269.46822266 148.39770508 269.45776367 C139.73217203 269.22960697 133.51422981 267.27853038 126.06005859 262.86352539 C121.68732881 260.39654103 118.67135609 259.28065194 113.69677734 260.31665039 C109.04049931 262.10550297 105.73368655 264.67435605 103.64208984 269.26586914 C102.4932738 273.33894419 102.51655617 275.73939918 103.68505859 279.86352539 C107.43197236 286.14867106 112.08587623 289.22701319 118.49755859 292.30102539 C119.17947266 292.64327148 119.86138672 292.98551758 120.56396484 293.33813477 C126.78196506 296.38791582 132.59644464 298.45626266 139.62255859 298.11352539 C139.58775391 298.76579102 139.55294922 299.41805664 139.51708984 300.09008789 C139.34802254 305.54854657 139.41323232 309.46553562 142.62255859 314.11352539 C147.27770406 318.31451032 150.15291818 319.4678863 156.30224609 319.39868164 C160.7802677 318.84835239 163.54968546 316.33438102 166.43505859 313.05102539 C168.55072441 309.59914959 168.85904061 306.38481513 169.18505859 302.42602539 C169.31074219 300.93522461 169.31074219 300.93522461 169.43896484 299.41430664 C169.49955078 298.65504883 169.56013672 297.89579102 169.62255859 297.11352539 C170.21681641 296.91758789 170.81107422 296.72165039 171.42333984 296.51977539 C186.80283105 290.97072102 196.25914132 280.56153452 203.39599609 266.16821289 C208.14706029 254.33594474 208.70994697 239.79607612 204.01318359 227.85571289 C195.06976395 210.22009325 180.37871366 202.79873598 162.60961914 196.38720703 C153.9095376 193.20208167 144.45443772 189.48994591 137.62255859 183.11352539 C136.00408809 177.04426101 136.64148042 172.63404053 139.62255859 167.11352539 C142.98288625 162.85711036 146.54139262 161.39686485 151.86474609 160.67211914 C160.37890597 160.38831381 166.0071196 161.45944868 173.34667969 165.7109375 C178.3411153 168.49114997 181.21310334 168.25205995 186.62255859 167.11352539 C190.79163773 165.40799302 192.81842362 163.0196295 194.89599609 159.00805664 C196.52326992 154.76489639 196.00029636 151.27034731 194.62255859 147.05102539 C189.16198026 139.03080096 178.94309538 134.13878222 169.62255859 132.11352539 C169.52458984 131.3052832 169.42662109 130.49704102 169.32568359 129.66430664 C168.37943925 121.50138025 168.37943925 121.50138025 163.62255859 115.11352539 C156.67517767 110.63632435 149.92357075 110.84444078 143.62255859 116.11352539 Z " fill="#000000" transform="translate(16.37744140625,80.886474609375)"/>
<path d="M0 0 C1.21621191 -0.00445668 1.21621191 -0.00445668 2.45699376 -0.0090034 C5.18920954 -0.01771405 7.92138164 -0.01920064 10.65361023 -0.02069092 C12.60635981 -0.02531743 14.55910847 -0.03034186 16.51185608 -0.03573608 C21.82801918 -0.04887837 27.14416964 -0.05530862 32.46034646 -0.05974674 C35.77943547 -0.06267457 39.098521 -0.06677883 42.41760826 -0.07125092 C52.79572513 -0.08493077 63.17383407 -0.09459499 73.55195934 -0.09845281 C85.54405649 -0.10293467 97.53603972 -0.12048649 109.52810222 -0.1494534 C118.78929292 -0.17104959 128.05045152 -0.18115599 137.31166714 -0.18249393 C142.84676212 -0.18354345 148.38175009 -0.18948254 153.91681862 -0.20731354 C159.12309885 -0.22375851 164.32919122 -0.22596711 169.53548813 -0.21717453 C171.44750025 -0.21640223 173.35952232 -0.22077215 175.27150917 -0.23063278 C177.87979917 -0.24329658 180.48741822 -0.23750595 183.09570312 -0.22705078 C183.85407339 -0.23510719 184.61244365 -0.24316359 185.39379483 -0.25146413 C191.64002925 -0.19282233 194.37938049 1.55879694 199.01156521 5.49999237 C202.78321908 10.33570045 201.92102608 16.55547648 201.86651611 22.38763428 C201.87156314 23.75385485 201.87879319 25.12006879 201.88801426 26.48626757 C201.90694182 30.23527164 201.89470049 33.98362334 201.87729132 37.73261094 C201.86392283 41.77768283 201.87935253 45.82265893 201.89111328 49.86772156 C201.90949816 57.78988884 201.90097196 65.71180957 201.88302506 73.63396919 C201.86900281 80.07210333 201.86510545 86.51017053 201.86846733 92.94831848 C201.86894477 93.86441777 201.86942222 94.78051707 201.86991413 95.72437695 C201.87094045 97.58538037 201.87199581 99.44638378 201.87307989 101.30738717 C201.88164867 117.76562273 201.8649662 134.22373922 201.83525085 150.6819458 C201.80641303 166.65432741 201.79932968 182.62653748 201.81474304 198.59893799 C201.83150177 215.9893267 201.83554276 233.37963395 201.81803268 250.77002478 C201.81618828 252.62420494 201.81435356 254.47838512 201.81252861 256.33256531 C201.81161652 257.24487161 201.81070443 258.15717791 201.8097647 259.09712985 C201.80415726 265.52796809 201.80746842 271.95876658 201.81407356 278.38960266 C201.82180281 286.22604066 201.81506895 294.06230976 201.78989852 301.89871371 C201.77739392 305.89745922 201.77126847 309.89594166 201.78244019 313.89469719 C201.79247358 317.55510453 201.78404279 321.21498698 201.76085901 324.87533039 C201.7532487 326.82708896 201.7652617 328.77889355 201.77796274 330.73062563 C201.67503511 341.54960613 201.67503511 341.54960613 197.23832703 346.14044189 C193.14288485 349.52364872 189.1943162 349.56855377 184.08465576 349.52812195 C183.26790656 349.53350749 182.45115736 349.53889302 181.60965818 349.54444176 C178.87513179 349.55873982 176.14108822 349.5516131 173.40653992 349.54449463 C171.44511526 349.55019723 169.48369392 349.55716106 167.52227783 349.56529236 C162.19584687 349.58325097 156.86958041 349.58205029 151.54312825 349.57634997 C147.09717858 349.57326206 142.65126068 349.57934615 138.20531553 349.58538872 C127.71735048 349.5994412 117.22946687 349.59786661 106.74150085 349.58648682 C95.91974513 349.57500436 85.09823719 349.58908185 74.27651411 349.61588329 C64.98635742 349.63803059 55.69627857 349.64467986 46.40609735 349.63880688 C40.85702643 349.63543385 35.30811437 349.63787543 29.75906563 349.65505791 C24.54118136 349.67050944 19.32366456 349.66659126 14.10579491 349.64775276 C12.190981 349.64406195 10.27613997 349.64718965 8.36135101 349.65763855 C5.74680304 349.67081653 3.13347726 349.65932972 0.51898193 349.64164734 C-0.23832008 349.65125235 -0.99562209 349.66085735 -1.77587265 349.67075342 C-6.90746257 349.59937153 -9.7931679 348.34733452 -13.76167297 345.14044189 C-17.25468053 341.1656402 -17.88654571 337.88186296 -17.89310074 332.68117809 C-17.89694188 331.53983479 -17.90078303 330.39849148 -17.90474057 329.22256202 C-17.90387409 327.96305317 -17.90300761 326.70354432 -17.90211487 325.40586853 C-17.90469798 324.05874494 -17.90771099 322.71162211 -17.91111827 321.36450034 C-17.91919782 317.65454359 -17.92097837 313.94460618 -17.92171574 310.23464167 C-17.92356462 306.23658199 -17.93111111 302.23853238 -17.93785095 298.24047852 C-17.95144139 289.49466584 -17.95746005 280.74885774 -17.96186161 272.00303626 C-17.96462273 266.5439982 -17.96885983 261.08496192 -17.97336578 255.62592506 C-17.98555918 240.51675242 -17.99585848 225.4075812 -17.99924088 210.29840374 C-17.99946044 209.3311096 -17.99968001 208.36381545 -17.99990623 207.36720936 C-18.0001245 206.39757843 -18.00034278 205.42794749 -18.00056767 204.4289338 C-18.00101114 202.46403611 -18.00145771 200.49913841 -18.00190735 198.53424072 C-18.00212878 197.55958006 -18.00235021 196.5849194 -18.00257835 195.58072356 C-18.00652725 179.78398898 -18.02398377 163.9873005 -18.04726687 148.19058373 C-18.07096851 131.97930004 -18.08344218 115.7680395 -18.08460879 99.5567382 C-18.0855262 90.45186434 -18.09129508 81.34705055 -18.10942841 72.24219322 C-18.12481335 64.489903 -18.12995936 56.73769142 -18.1216903 48.98538884 C-18.11777814 45.02921985 -18.1187409 41.0732093 -18.13274765 37.11705971 C-18.14545269 33.49549495 -18.1443192 29.87420823 -18.13215694 26.25264404 C-18.12926398 24.32160232 -18.14116142 22.39055595 -18.153579 20.45955199 C-18.09285789 9.87073278 -18.09285789 9.87073278 -14.76167297 5.14044189 C-9.72853326 0.5983402 -6.60302262 -0.00747835 0 0 Z M16.23832703 40.14044189 C15.06174099 43.67020001 15.07525505 46.87220112 15.06132507 50.54595947 C15.05475388 51.2975383 15.04818268 52.04911713 15.04141235 52.82347107 C15.02170235 55.31063947 15.01002216 57.79774756 15.00004578 60.28497314 C14.99597025 61.13527288 14.99189472 61.98557262 14.98769569 62.86163902 C14.96684515 67.36187878 14.95253882 71.86208813 14.94316101 76.36236572 C14.93209624 81.00621954 14.89769288 85.64959424 14.85798931 90.29327869 C14.83182403 93.86812725 14.82346929 97.44286158 14.81987953 101.01779747 C14.81501365 102.7293897 14.80339955 104.44097682 14.78484154 106.15247536 C14.76045026 108.55094852 14.76141452 110.94818108 14.76835632 113.34674072 C14.75554626 114.04981354 14.74273621 114.75288635 14.72953796 115.4772644 C14.7821301 120.47771272 16.14346117 123.26926731 19.23832703 127.14044189 C23.16708736 130.59298886 26.42662921 131.26478511 31.56994629 131.28761292 C32.67606766 131.29476822 33.78218903 131.30192352 34.92182922 131.30929565 C36.13591461 131.31198456 37.35 131.31467346 38.60087585 131.31744385 C39.87914749 131.32401505 41.15741913 131.33058624 42.47442627 131.33735657 C46.71472421 131.35837792 50.95502243 131.36875658 55.19535828 131.37872314 C56.65602322 131.38277131 58.11668797 131.38688825 59.57735252 131.39107323 C66.43949626 131.41012003 73.30162926 131.42435258 80.16379434 131.4326852 C88.08141129 131.4424586 95.99874875 131.46878267 103.91626722 131.50918609 C110.03866621 131.5393555 116.1609851 131.55415481 122.28345698 131.55746621 C125.9390244 131.55981562 129.59429306 131.56876148 133.24978065 131.59392738 C137.32923074 131.62155891 141.40805688 131.61737451 145.4875946 131.6104126 C146.6956073 131.62322266 147.90362 131.63603271 149.14823914 131.64923096 C155.48247801 131.60976877 159.46044025 131.46908875 164.23832703 127.14044189 C169.09724267 121.88756012 169.36065285 118.13158573 169.41532898 111.11212158 C169.42518578 110.06250496 169.42518578 110.06250496 169.4352417 108.99168396 C169.45490958 106.68189372 169.46662321 104.37216832 169.47660828 102.06231689 C169.4806838 101.27059334 169.48475933 100.47886978 169.48895836 99.6631546 C169.50979219 95.47182987 169.52410503 91.28053761 169.53349304 87.08917236 C169.54454697 82.77398121 169.57894246 78.45930719 169.61866474 74.14429855 C169.64488763 70.81385378 169.65318991 67.48353116 169.65677452 64.15299225 C169.66162649 62.56306723 169.67320065 60.97314715 169.69181252 59.38332367 C169.93694017 47.66256857 169.93694017 47.66256857 165.23832703 37.14044189 C160.56149253 33.41806342 156.97270783 32.0188535 151.06529236 32 C149.45876297 31.99143478 149.45876297 31.99143478 147.81977844 31.98269653 C146.05711136 31.98101974 146.05711136 31.98101974 144.25883484 31.97930908 C143.02118378 31.97434418 141.78353271 31.96937927 140.50837708 31.96426392 C137.11148306 31.95215307 133.71465063 31.94469632 130.31774235 31.94025326 C128.19414823 31.93732062 126.07055949 31.9332154 123.94696808 31.92874908 C117.29892733 31.91507497 110.65089889 31.90540846 104.00284505 31.90154719 C96.33601876 31.89706948 88.66937101 31.87953468 81.002599 31.8505466 C75.07211356 31.82890423 69.14167825 31.81884152 63.21115375 31.81750607 C59.6713059 31.81645967 56.13162592 31.81058748 52.59181976 31.79268646 C48.63962086 31.77308902 44.6876436 31.77750496 40.73539734 31.78399658 C39.56838287 31.7747818 38.40136841 31.76556702 37.19898987 31.756073 C28.18995688 31.80243051 22.34176928 32.9599216 16.23832703 40.14044189 Z M17.92582703 169.70294189 C15.46605793 173.25594169 15.11019815 175.05638474 15.09115601 179.34507751 C15.0840007 180.44837906 15.0768454 181.5516806 15.06947327 182.68841553 C15.06678436 183.90452515 15.06409546 185.12063477 15.06132507 186.37359619 C15.05475388 187.65011551 15.04818268 188.92663483 15.04141235 190.24183655 C15.02036049 194.4827651 15.01000696 198.72369405 15.00004578 202.96466064 C14.99599824 204.42499117 14.99188132 205.8853215 14.98769569 207.34565163 C14.96863927 214.20833478 14.95441082 221.07100717 14.94608372 227.93371171 C14.93631786 235.8513289 14.91001751 243.76866604 14.86958283 251.68618459 C14.83939523 257.80772978 14.82461224 263.92919485 14.82130271 270.05081302 C14.81895463 273.70586841 14.81002672 277.36062478 14.78484154 281.0156002 C14.75717113 285.09735009 14.76139998 289.17847715 14.76835632 293.26031494 C14.75554626 294.46630341 14.74273621 295.67229187 14.72953796 296.91482544 C14.77071385 303.54085853 15.19411703 307.79314366 19.23832703 313.14044189 C23.82304289 316.57897879 27.90650841 317.2629135 33.53161621 317.28088379 C35.1402076 317.28944901 35.1402076 317.28944901 36.78129578 317.29818726 C37.95281189 317.29930511 39.124328 317.30042297 40.3313446 317.30157471 C41.56914169 317.30653961 42.80693878 317.31150452 44.08224487 317.31661987 C47.47494757 317.32871783 50.86758872 317.33618382 54.26030564 317.34063053 C56.38172752 317.34356533 58.50314404 317.3476709 60.62456322 317.3521347 C67.26726118 317.36580286 73.90994685 317.37547288 80.5526579 317.3793366 C88.21098412 317.383816 95.86913173 317.40136119 103.52740365 317.43033719 C109.45366301 317.45197874 115.3798722 317.46204219 121.30617064 317.46337771 C124.8426502 317.46442396 128.37896172 317.47029321 131.91539955 317.48819733 C135.86269982 317.50779347 139.80977816 317.50337916 143.75712585 317.49688721 C145.50529099 317.51070938 145.50529099 317.51070938 147.28877258 317.52481079 C153.38060453 317.49342232 157.89714827 317.1726438 163.23832703 314.14044189 C167.6850341 309.57355355 169.48493749 305.09701573 169.49902344 298.76486206 C169.50610825 297.69950729 169.51319305 296.63415253 169.52049255 295.53651428 C169.51801514 294.37794418 169.51553772 293.21937408 169.51298523 292.0256958 C169.51809616 290.79750626 169.52320709 289.56931671 169.5284729 288.3039093 C169.53998101 284.94219089 169.54244406 281.58071928 169.5399096 278.21899843 C169.53883818 275.40849195 169.54372773 272.59800809 169.54851502 269.78750646 C169.55960273 263.15415776 169.56005201 256.52086569 169.55400085 249.88751221 C169.54796322 243.05454691 169.5602683 236.22178764 169.58157092 229.38885748 C169.59921158 223.51352334 169.60518434 217.63825463 169.60193318 211.76289499 C169.60012383 208.25774239 169.60272138 204.7527367 169.61664772 201.24760818 C169.63160676 197.33631622 169.62223435 193.42528468 169.61064148 189.51397705 C169.61828522 188.35945541 169.62592896 187.20493378 169.63380432 186.01542664 C169.58980259 179.29693399 169.34064304 173.66113641 164.70317078 168.39825439 C160.39947029 165.20625148 158.34455646 164.01641256 153.02696228 164 C151.36984222 163.99143478 151.36984222 163.99143478 149.679245 163.98269653 C147.852724 163.98101974 147.852724 163.98101974 145.98930359 163.97930908 C144.71117798 163.97434418 143.43305237 163.96937927 142.11619568 163.96426392 C138.6036271 163.9511307 135.09107765 163.94469286 131.57848835 163.94025326 C129.38371587 163.93732325 127.18894862 163.93321853 124.99417877 163.92874908 C118.12668896 163.91507005 111.2592111 163.9054061 104.39170861 163.90154719 C96.46564249 163.89706906 88.53974905 163.87953437 80.61373544 163.8505466 C74.48710917 163.82891828 68.36053144 163.81884226 62.23386741 163.81750607 C58.57499034 163.81645861 54.91627551 163.81056388 51.25743866 163.79268646 C47.17316243 163.77311943 43.08924652 163.77749931 39.00492859 163.78399658 C37.19055298 163.77017441 37.19055298 163.77017441 35.33952332 163.756073 C28.1152802 163.79212316 23.01407886 164.06460878 17.92582703 169.70294189 Z " fill="#000000" transform="translate(310.7616729736328,162.85955810546875)"/>
<path d="M0 0 C7.80742266 4.8150307 13.36092786 10.57768304 16.2421875 19.3828125 C16.97441555 22.78828168 17.56899907 26.21612434 17.99169922 29.67382812 C18.76812104 35.11550898 20.3956683 37.64682547 24.2421875 41.3828125 C29.30137291 44.47553008 35.71462855 43.73887821 41.46875 43.7734375 C42.70625 43.80824219 42.70625 43.80824219 43.96875 43.84375 C44.71721191 43.85196777 45.46567383 43.86018555 46.23681641 43.86865234 C48.2421875 44.3828125 48.2421875 44.3828125 49.984375 45.97705078 C51.68662704 49.23287214 51.63071701 51.74716125 51.640625 55.4140625 C51.64493027 56.42345886 51.64493027 56.42345886 51.64932251 57.45324707 C51.65135846 58.87199752 51.64586132 60.29077634 51.63330078 61.70947266 C51.61723826 63.8759665 51.63316304 66.04059514 51.65234375 68.20703125 C51.65036123 69.58854577 51.64651737 70.97005913 51.640625 72.3515625 C51.63724121 73.60388672 51.63385742 74.85621094 51.63037109 76.14648438 C51.20438821 79.69794922 50.71305775 80.86977267 48.2421875 83.3828125 C45.89801788 83.88338375 45.89801788 83.88338375 43.0802002 83.88401794 C41.47762108 83.89876915 41.47762108 83.89876915 39.84266663 83.91381836 C38.6706218 83.90415039 37.49857697 83.89448242 36.29101562 83.88452148 C35.05669296 83.88992447 33.8223703 83.89532745 32.55064392 83.90089417 C29.16401127 83.91126992 25.77835304 83.90366608 22.39180565 83.88718295 C18.84978195 83.87334387 15.30778803 83.87979122 11.76574707 83.88331604 C5.81721821 83.88601908 -0.13110897 83.87253467 -6.07958984 83.84936523 C-12.9591928 83.82275474 -19.83845852 83.82100795 -26.7180953 83.8327536 C-33.33306796 83.8435288 -39.94791851 83.83734639 -46.56288147 83.82319832 C-49.37942894 83.81743622 -52.19588712 83.81752291 -55.01243591 83.82226372 C-58.94396754 83.82791731 -62.87516102 83.80872559 -66.80664062 83.78686523 C-67.97868546 83.79136688 -69.15073029 83.79586853 -70.35829163 83.80050659 C-71.4266777 83.79060196 -72.49506378 83.78069733 -73.5958252 83.77049255 C-74.99064495 83.76684771 -74.99064495 83.76684771 -76.41364288 83.76312923 C-78.7578125 83.3828125 -78.7578125 83.3828125 -80.55617523 82.0662241 C-82.52560654 79.30718558 -82.18469796 76.24142582 -82.15625 72.9765625 C-82.15912018 72.25545288 -82.16199036 71.53434326 -82.16494751 70.79138184 C-82.16698702 69.26830255 -82.16146497 67.745197 -82.14892578 66.22216797 C-82.13286893 63.89100572 -82.1487766 61.56157708 -82.16796875 59.23046875 C-82.1659863 57.74999617 -82.16214257 56.26952468 -82.15625 54.7890625 C-82.16232269 54.0921228 -82.16839539 53.39518311 -82.1746521 52.67712402 C-82.13365834 49.85602021 -82.05792669 47.84429404 -80.49780273 45.4453125 C-78.35900947 44.13928917 -77.01909371 44.00044281 -74.51953125 43.9765625 C-73.69904297 43.95464844 -72.87855469 43.93273438 -72.03320312 43.91015625 C-70.75219727 43.89662109 -70.75219727 43.89662109 -69.4453125 43.8828125 C-63.46664232 43.81877166 -58.96863299 43.69878917 -53.7578125 40.3828125 C-49.89610158 36.41383183 -49.46627699 33.09091616 -48.8203125 27.6328125 C-47.81005336 19.1663045 -44.88357614 11.50857614 -38.7578125 5.3828125 C-27.67800819 -3.08623332 -13.10423444 -6.30944621 0 0 Z " fill="#000000" transform="translate(187.7578125,2.6171875)"/>
<path d="M0 0 C31.68 0 63.36 0 96 0 C96 13.53 96 27.06 96 41 C64.32 41 32.64 41 0 41 C0 27.47 0 13.94 0 0 Z " fill="#000000" transform="translate(355,224)"/>
<path d="M0 0 C11.22 0 22.44 0 34 0 C34 10.89 34 21.78 34 33 C22.78 33 11.56 33 0 33 C0 22.11 0 11.22 0 0 Z " fill="#000000" transform="translate(417,418)"/>
<path d="M0 0 C11.22 0 22.44 0 34 0 C34 10.89 34 21.78 34 33 C22.78 33 11.56 33 0 33 C0 22.11 0 11.22 0 0 Z " fill="#000000" transform="translate(417,356)"/>
<path d="M0 0 C10.89 0 21.78 0 33 0 C33 10.89 33 21.78 33 33 C22.11 33 11.22 33 0 33 C0 22.11 0 11.22 0 0 Z " fill="#000000" transform="translate(355,418)"/>
<path d="M0 0 C10.89 0 21.78 0 33 0 C33 10.89 33 21.78 33 33 C22.11 33 11.22 33 0 33 C0 22.11 0 11.22 0 0 Z " fill="#000000" transform="translate(355,356)"/>
</svg>
