<svg width="24" height="24" viewBox="0 0 24 24" fill="none" xmlns="http://www.w3.org/2000/svg">
<path d="M12 10.2222C12.4086 10.2222 12.8131 10.1418 13.1906 9.9854C13.568 9.82906 13.911 9.59989 14.1999 9.311C14.4888 9.02211 14.7179 8.67914 14.8743 8.30168C15.0306 7.92422 15.1111 7.51967 15.1111 7.11111C15.1111 6.70255 15.0306 6.298 14.8743 5.92054C14.7179 5.54308 14.4888 5.20012 14.1999 4.91122C13.911 4.62233 13.568 4.39317 13.1906 4.23682C12.8131 4.08047 12.4086 4 12 4C11.1749 4 10.3836 4.32778 9.80011 4.91122C9.21667 5.49467 8.88889 6.28599 8.88889 7.11111C8.88889 7.93623 9.21667 8.72755 9.80011 9.311C10.3836 9.89445 11.1749 10.2222 12 10.2222ZM4 19.4667V20H20V19.4667C20 17.4756 20 16.48 19.6124 15.7191C19.2716 15.0501 18.7277 14.5062 18.0587 14.1653C17.2978 13.7778 16.3022 13.7778 14.3111 13.7778H9.68889C7.69778 13.7778 6.70222 13.7778 5.94133 14.1653C5.27234 14.5062 4.72843 15.0501 4.38756 15.7191C4 16.48 4 17.4756 4 19.4667Z" stroke="white" stroke-width="2" stroke-linecap="round" stroke-linejoin="round"/>
</svg>
