<svg width="24" height="24" viewBox="0 0 24 24" fill="none" xmlns="http://www.w3.org/2000/svg">
<path fill-rule="evenodd" clip-rule="evenodd" d="M11.837 21.9987L12 22C11.7792 22 11.5585 21.9928 11.3382 21.9785C11.0656 21.9606 10.7938 21.9317 10.5235 21.8917C10.2095 21.8452 9.89794 21.7838 9.58981 21.7076C9.28607 21.6324 8.98605 21.543 8.69075 21.4395L8.68911 21.4389C8.20282 21.2683 7.73054 21.0602 7.27653 20.8164C6.95431 20.6434 6.64184 20.4528 6.34053 20.2455C6.00169 20.0125 5.6775 19.7589 5.3698 19.4862C5.26229 19.3909 5.15682 19.2933 5.05348 19.1935C3.17075 17.375 2 14.8242 2 12C2 6.47717 6.47717 2 12 2C13.3132 1.99999 14.6136 2.25865 15.8268 2.76119C17.0401 3.26373 18.1425 4.00033 19.0711 4.92891C19.9997 5.8575 20.7363 6.95989 21.2388 8.17315C21.7414 9.3864 22 10.6868 22 12C22 14.8243 20.8292 17.3751 18.9464 19.1936C18.9463 19.1937 18.9463 19.1939 18.9464 19.1942C18.4727 19.6514 17.9554 20.0609 17.4017 20.417L17.3939 20.422C17.2684 20.5026 17.141 20.5804 17.0119 20.6553L16.9983 20.6632C16.7724 20.7937 16.5415 20.9154 16.3062 21.0279C16.2141 21.0718 16.1213 21.1144 16.028 21.1556C15.9306 21.1984 15.8326 21.2398 15.734 21.2796C15.6384 21.318 15.5422 21.355 15.4455 21.3906C15.3477 21.4264 15.2494 21.4607 15.1506 21.4936C15.0535 21.5257 14.9559 21.5564 14.8579 21.5856C14.754 21.6165 14.6497 21.6457 14.5449 21.6733C14.4429 21.7 14.3406 21.7251 14.2378 21.7487C14.1353 21.7721 14.0324 21.7939 13.9292 21.8141C13.5085 21.8963 13.0829 21.9513 12.6552 21.9789C12.5488 21.9858 12.4424 21.991 12.3359 21.9945L12.3339 21.9945C12.1683 22 12.0026 22.0014 11.837 21.9987ZM13 16H11C9.40705 16 8.01388 16.9374 7.37342 18.308L7.301 18.474L7.36367 18.5203C8.50348 19.3322 9.86525 19.8528 11.3403 19.9732C11.3843 19.9768 11.4284 19.98 11.4726 19.9829L11.3464 19.9737C11.3893 19.9772 11.4324 19.9803 11.4755 19.9831L11.4726 19.9829C11.5154 19.9857 11.5582 19.9882 11.6011 19.9903L11.4755 19.9831C11.5201 19.986 11.5647 19.9885 11.6095 19.9906L11.6011 19.9903C11.6332 19.9918 11.6654 19.9932 11.6975 19.9944L12 20L12.1254 19.9991C12.1715 19.9984 12.2176 19.9973 12.2637 19.9958L12.1371 19.9988C12.1797 19.9981 12.2223 19.9971 12.2648 19.9957L12.2637 19.9957C12.3065 19.9944 12.3493 19.9926 12.392 19.9906L12.2648 19.9957C12.3089 19.9942 12.3529 19.9925 12.397 19.9903L12.392 19.9906C12.4365 19.9884 12.4809 19.9859 12.5251 19.9831L12.397 19.9903C12.4403 19.9882 12.4836 19.9858 12.5268 19.9829L12.5252 19.983C12.5685 19.9802 12.6117 19.9771 12.6548 19.9736L12.5268 19.9829C12.5708 19.9801 12.6148 19.9768 12.6588 19.9733L12.6548 19.9736C12.6967 19.9702 12.7385 19.9665 12.7802 19.9625L12.6588 19.9733C12.7026 19.9697 12.7462 19.9658 12.7898 19.9615L12.7802 19.9625C14.2059 19.8245 15.5222 19.3122 16.6295 18.5252L16.698 18.474L16.6266 18.3081C16.0142 16.9971 14.7129 16.0823 13.2066 16.0053L13 16ZM12 4.00002C7.58173 4.00002 4.00002 7.58173 4.00002 12C4.00002 13.908 4.66794 15.66 5.78272 17.0348C6.81528 15.2221 8.76491 14 11 14H13C15.2352 14 17.1848 15.2222 18.2172 17.0347C19.332 15.66 20 13.908 20 12C20 7.58173 16.4183 4.00002 12 4.00002ZM12 5C14.2092 5 16 6.79086 16 8.99998C16 11.1422 14.316 12.8911 12.1996 12.9951L12 13C9.79086 13 8 11.2092 8 8.99998C8 6.8578 9.68398 5.10889 11.8003 5.00488L12 5ZM12 7.00002C10.8954 7.00002 10 7.89542 10 8.99998C10 10.1045 10.8954 11 12 11C13.1045 11 14 10.1045 14 8.99998C14 7.89542 13.1045 7.00002 12 7.00002Z" fill="white"/>
</svg>
