<svg width="24" height="24" viewBox="0 0 24 24" fill="none" xmlns="http://www.w3.org/2000/svg">
<path d="M12 4V8.92308M4 8.92308H20V18.7692C20 19.0957 19.8703 19.4087 19.6395 19.6395C19.4087 19.8703 19.0957 20 18.7692 20H5.23077C4.90435 20 4.5913 19.8703 4.36048 19.6395C4.12967 19.4087 4 19.0957 4 18.7692V8.92308Z" stroke="white" stroke-width="1.71429" stroke-linecap="round" stroke-linejoin="round"/>
<path d="M4 8.92308L5.84615 5.36615C6.04518 4.96526 6.34975 4.62621 6.72709 4.3855C7.10443 4.14478 7.54026 4.0115 7.98769 4H16.0123C16.4703 4.00024 16.9191 4.12823 17.3083 4.36957C17.6974 4.61092 18.0116 4.95605 18.2154 5.36615L20 8.92308M15.0745 12L11.3871 16.9231L8.92554 15.0794" stroke="white" stroke-width="1.71429" stroke-linecap="round" stroke-linejoin="round"/>
</svg>
